<mxfile host="app.diagrams.net" agent="Mozilla/5.0 (Windows NT 10.0; Win64; x64) AppleWebKit/537.36 (KHTML, like Gecko) Chrome/132.0.0.0 Safari/537.36" version="26.0.13">
  <diagram name="Pagina-1" id="MqDAOUbSSF8TTXC7MPCy">
    <mxGraphModel dx="1434" dy="780" grid="1" gridSize="10" guides="1" tooltips="1" connect="1" arrows="1" fold="1" page="1" pageScale="1" pageWidth="827" pageHeight="1169" math="0" shadow="0">
      <root>
        <mxCell id="0" />
        <mxCell id="1" parent="0" />
        <mxCell id="xLusIHKsAydajGtpD9oH-1" value="Cognitive Abstraction Layer (CAL)" style="rounded=0;whiteSpace=wrap;html=1;" parent="1" vertex="1">
          <mxGeometry x="295" y="490" width="240" height="40" as="geometry" />
        </mxCell>
        <mxCell id="xLusIHKsAydajGtpD9oH-49" style="edgeStyle=none;curved=1;rounded=0;orthogonalLoop=1;jettySize=auto;html=1;fontSize=12;startSize=8;endSize=8;" parent="1" source="xLusIHKsAydajGtpD9oH-46" target="xLusIHKsAydajGtpD9oH-48" edge="1">
          <mxGeometry relative="1" as="geometry" />
        </mxCell>
        <mxCell id="xLusIHKsAydajGtpD9oH-50" style="edgeStyle=none;curved=1;rounded=0;orthogonalLoop=1;jettySize=auto;html=1;fontSize=12;startSize=8;endSize=8;" parent="1" source="xLusIHKsAydajGtpD9oH-46" target="xLusIHKsAydajGtpD9oH-47" edge="1">
          <mxGeometry relative="1" as="geometry">
            <Array as="points">
              <mxPoint x="90" y="540" />
            </Array>
          </mxGeometry>
        </mxCell>
        <mxCell id="xLusIHKsAydajGtpD9oH-46" value="&lt;font style=&quot;&quot;&gt;&lt;span style=&quot;font-size: 10px;&quot;&gt;Natural Language Processing &lt;/span&gt;&lt;b style=&quot;&quot;&gt;&lt;font&gt;i/o&lt;/font&gt;&lt;/b&gt;&lt;/font&gt;" style="shape=process;whiteSpace=wrap;html=1;backgroundOutline=1;" parent="1" vertex="1">
          <mxGeometry x="220" y="530" width="120" height="30" as="geometry" />
        </mxCell>
        <mxCell id="xLusIHKsAydajGtpD9oH-52" style="edgeStyle=none;curved=1;rounded=0;orthogonalLoop=1;jettySize=auto;html=1;fontSize=12;startSize=8;endSize=8;" parent="1" source="xLusIHKsAydajGtpD9oH-47" target="xLusIHKsAydajGtpD9oH-51" edge="1">
          <mxGeometry relative="1" as="geometry" />
        </mxCell>
        <mxCell id="xLusIHKsAydajGtpD9oH-47" value="&lt;font style=&quot;font-size: 11px;&quot;&gt;&lt;b&gt;Natural Language Generation&lt;/b&gt;&lt;/font&gt;" style="rounded=0;whiteSpace=wrap;html=1;" parent="1" vertex="1">
          <mxGeometry x="40" y="590" width="100" height="40" as="geometry" />
        </mxCell>
        <mxCell id="xLusIHKsAydajGtpD9oH-58" style="edgeStyle=none;curved=1;rounded=0;orthogonalLoop=1;jettySize=auto;html=1;fontSize=12;startSize=8;endSize=8;" parent="1" source="xLusIHKsAydajGtpD9oH-48" target="xLusIHKsAydajGtpD9oH-55" edge="1">
          <mxGeometry relative="1" as="geometry" />
        </mxCell>
        <mxCell id="xLusIHKsAydajGtpD9oH-59" style="edgeStyle=none;curved=1;rounded=0;orthogonalLoop=1;jettySize=auto;html=1;fontSize=12;startSize=8;endSize=8;" parent="1" source="xLusIHKsAydajGtpD9oH-48" target="xLusIHKsAydajGtpD9oH-53" edge="1">
          <mxGeometry relative="1" as="geometry">
            <Array as="points">
              <mxPoint x="230" y="640" />
            </Array>
          </mxGeometry>
        </mxCell>
        <mxCell id="xLusIHKsAydajGtpD9oH-60" style="edgeStyle=none;curved=1;rounded=0;orthogonalLoop=1;jettySize=auto;html=1;entryX=0.5;entryY=0;entryDx=0;entryDy=0;fontSize=12;startSize=8;endSize=8;" parent="1" source="xLusIHKsAydajGtpD9oH-48" target="xLusIHKsAydajGtpD9oH-56" edge="1">
          <mxGeometry relative="1" as="geometry">
            <Array as="points">
              <mxPoint x="360" y="630" />
            </Array>
          </mxGeometry>
        </mxCell>
        <mxCell id="xLusIHKsAydajGtpD9oH-61" style="edgeStyle=none;curved=1;rounded=0;orthogonalLoop=1;jettySize=auto;html=1;fontSize=12;startSize=8;endSize=8;" parent="1" source="xLusIHKsAydajGtpD9oH-48" target="xLusIHKsAydajGtpD9oH-54" edge="1">
          <mxGeometry relative="1" as="geometry" />
        </mxCell>
        <mxCell id="xLusIHKsAydajGtpD9oH-62" style="edgeStyle=none;curved=1;rounded=0;orthogonalLoop=1;jettySize=auto;html=1;fontSize=12;startSize=8;endSize=8;" parent="1" source="xLusIHKsAydajGtpD9oH-48" target="xLusIHKsAydajGtpD9oH-57" edge="1">
          <mxGeometry relative="1" as="geometry">
            <Array as="points">
              <mxPoint x="340" y="680" />
            </Array>
          </mxGeometry>
        </mxCell>
        <mxCell id="xLusIHKsAydajGtpD9oH-48" value="&lt;font style=&quot;font-size: 11px;&quot;&gt;&lt;b&gt;Natural Language Understanding&lt;/b&gt;&lt;/font&gt;" style="rounded=0;whiteSpace=wrap;html=1;" parent="1" vertex="1">
          <mxGeometry x="230" y="590" width="100" height="40" as="geometry" />
        </mxCell>
        <mxCell id="xLusIHKsAydajGtpD9oH-51" value="&lt;font style=&quot;font-size: 11px;&quot;&gt;Natural Language Texts&lt;/font&gt;" style="rounded=0;whiteSpace=wrap;html=1;" parent="1" vertex="1">
          <mxGeometry x="40" y="700" width="100" height="40" as="geometry" />
        </mxCell>
        <mxCell id="xLusIHKsAydajGtpD9oH-53" value="&lt;font style=&quot;font-size: 11px;&quot;&gt;Phonology&lt;/font&gt;" style="rounded=0;whiteSpace=wrap;html=1;" parent="1" vertex="1">
          <mxGeometry x="190" y="660" width="60" height="40" as="geometry" />
        </mxCell>
        <mxCell id="xLusIHKsAydajGtpD9oH-54" value="&lt;font style=&quot;font-size: 11px;&quot;&gt;Morphology&lt;/font&gt;" style="rounded=0;whiteSpace=wrap;html=1;" parent="1" vertex="1">
          <mxGeometry x="210" y="730" width="60" height="40" as="geometry" />
        </mxCell>
        <mxCell id="xLusIHKsAydajGtpD9oH-55" value="&lt;font style=&quot;font-size: 11px;&quot;&gt;Syntax&lt;/font&gt;" style="rounded=0;whiteSpace=wrap;html=1;" parent="1" vertex="1">
          <mxGeometry x="270" y="690" width="70" height="30" as="geometry" />
        </mxCell>
        <mxCell id="xLusIHKsAydajGtpD9oH-56" value="&lt;font style=&quot;font-size: 11px;&quot;&gt;Pragmatics&lt;/font&gt;" style="rounded=0;whiteSpace=wrap;html=1;" parent="1" vertex="1">
          <mxGeometry x="354" y="650" width="60" height="40" as="geometry" />
        </mxCell>
        <mxCell id="xLusIHKsAydajGtpD9oH-57" value="&lt;font style=&quot;font-size: 11px;&quot;&gt;Semantics&lt;/font&gt;" style="rounded=0;whiteSpace=wrap;html=1;" parent="1" vertex="1">
          <mxGeometry x="344" y="740" width="70" height="30" as="geometry" />
        </mxCell>
        <mxCell id="xLusIHKsAydajGtpD9oH-63" value="&lt;font style=&quot;&quot;&gt;&lt;span style=&quot;font-size: 10px;&quot;&gt;Visual Processing Layer &lt;/span&gt;&lt;b style=&quot;&quot;&gt;&lt;font style=&quot;font-size: 11px;&quot;&gt;input&lt;/font&gt;&lt;/b&gt;&lt;/font&gt;" style="shape=process;whiteSpace=wrap;html=1;backgroundOutline=1;" parent="1" vertex="1">
          <mxGeometry x="355" y="530" width="120" height="30" as="geometry" />
        </mxCell>
        <mxCell id="xLusIHKsAydajGtpD9oH-64" value="&lt;span style=&quot;font-size: 10px;&quot;&gt;Audio&amp;nbsp; Processing Layer &lt;/span&gt;&lt;b style=&quot;&quot;&gt;&lt;font&gt;input&lt;/font&gt;&lt;/b&gt;" style="shape=process;whiteSpace=wrap;html=1;backgroundOutline=1;" parent="1" vertex="1">
          <mxGeometry x="500" y="530" width="120" height="30" as="geometry" />
        </mxCell>
        <mxCell id="xLusIHKsAydajGtpD9oH-65" value="Thinking Stack" style="rounded=0;whiteSpace=wrap;html=1;" parent="1" vertex="1">
          <mxGeometry x="360" y="450" width="125" height="40" as="geometry" />
        </mxCell>
        <mxCell id="xLusIHKsAydajGtpD9oH-66" value="Memory Stack" style="rounded=0;whiteSpace=wrap;html=1;" parent="1" vertex="1">
          <mxGeometry x="360" y="410" width="125" height="40" as="geometry" />
        </mxCell>
        <mxCell id="xLusIHKsAydajGtpD9oH-67" value="I/O Processing Layer" style="rounded=0;whiteSpace=wrap;html=1;" parent="1" vertex="1">
          <mxGeometry x="947.5" y="450" width="240" height="40" as="geometry" />
        </mxCell>
        <mxCell id="xLusIHKsAydajGtpD9oH-89" style="edgeStyle=none;curved=1;rounded=0;orthogonalLoop=1;jettySize=auto;html=1;fontSize=12;startSize=8;endSize=8;exitX=0.709;exitY=1.014;exitDx=0;exitDy=0;exitPerimeter=0;" parent="1" source="xLusIHKsAydajGtpD9oH-68" target="xLusIHKsAydajGtpD9oH-86" edge="1">
          <mxGeometry relative="1" as="geometry" />
        </mxCell>
        <mxCell id="xLusIHKsAydajGtpD9oH-68" value="&lt;font style=&quot;&quot;&gt;&lt;span style=&quot;font-size: 10px;&quot;&gt;Natural Language Processing &lt;/span&gt;&lt;b style=&quot;&quot;&gt;&lt;font&gt;i/o&lt;/font&gt;&lt;/b&gt;&lt;/font&gt;" style="shape=process;whiteSpace=wrap;html=1;backgroundOutline=1;" parent="1" vertex="1">
          <mxGeometry x="877.5" y="490" width="120" height="30" as="geometry" />
        </mxCell>
        <mxCell id="xLusIHKsAydajGtpD9oH-69" value="&lt;font style=&quot;&quot;&gt;&lt;span style=&quot;font-size: 10px;&quot;&gt;Visual Processing Layer &lt;/span&gt;&lt;b style=&quot;&quot;&gt;&lt;font style=&quot;font-size: 11px;&quot;&gt;input/_&lt;/font&gt;&lt;/b&gt;&lt;/font&gt;" style="shape=process;whiteSpace=wrap;html=1;backgroundOutline=1;" parent="1" vertex="1">
          <mxGeometry x="1007.5" y="490" width="120" height="30" as="geometry" />
        </mxCell>
        <mxCell id="xLusIHKsAydajGtpD9oH-70" value="&lt;span style=&quot;font-size: 10px;&quot;&gt;Audio&amp;nbsp; Processing Layer &lt;/span&gt;&lt;b style=&quot;&quot;&gt;&lt;font&gt;input/_&lt;/font&gt;&lt;/b&gt;" style="shape=process;whiteSpace=wrap;html=1;backgroundOutline=1;" parent="1" vertex="1">
          <mxGeometry x="1137.5" y="490" width="120" height="30" as="geometry" />
        </mxCell>
        <mxCell id="xLusIHKsAydajGtpD9oH-72" value="&lt;span style=&quot;background-color: transparent; color: light-dark(rgb(0, 0, 0), rgb(255, 255, 255));&quot;&gt;&lt;font style=&quot;font-size: 14px;&quot;&gt;&lt;b&gt;Input&lt;/b&gt;&lt;/font&gt;&lt;/span&gt;" style="shape=dataStorage;whiteSpace=wrap;html=1;fixedSize=1;rotation=90;align=center;" parent="1" vertex="1">
          <mxGeometry x="870" y="567.5" width="50" height="40" as="geometry" />
        </mxCell>
        <mxCell id="xLusIHKsAydajGtpD9oH-98" style="edgeStyle=none;curved=1;rounded=0;orthogonalLoop=1;jettySize=auto;html=1;fontSize=12;startSize=8;endSize=8;" parent="1" source="xLusIHKsAydajGtpD9oH-86" edge="1">
          <mxGeometry relative="1" as="geometry">
            <Array as="points">
              <mxPoint x="967.5" y="650" />
            </Array>
            <mxPoint x="1014.1114386630311" y="694.158205049187" as="targetPoint" />
          </mxGeometry>
        </mxCell>
        <mxCell id="xLusIHKsAydajGtpD9oH-86" value="&lt;span style=&quot;font-size: 14px;&quot;&gt;&lt;b&gt;Output&lt;/b&gt;&lt;/span&gt;" style="shape=dataStorage;whiteSpace=wrap;html=1;fixedSize=1;rotation=-90;align=center;" parent="1" vertex="1">
          <mxGeometry x="937.5" y="567.5" width="50" height="40" as="geometry" />
        </mxCell>
        <mxCell id="xLusIHKsAydajGtpD9oH-88" style="edgeStyle=none;curved=1;rounded=0;orthogonalLoop=1;jettySize=auto;html=1;entryX=0.141;entryY=0.991;entryDx=0;entryDy=0;entryPerimeter=0;fontSize=12;startSize=8;endSize=8;" parent="1" source="xLusIHKsAydajGtpD9oH-72" target="xLusIHKsAydajGtpD9oH-68" edge="1">
          <mxGeometry relative="1" as="geometry" />
        </mxCell>
        <mxCell id="xLusIHKsAydajGtpD9oH-92" style="edgeStyle=none;curved=1;rounded=0;orthogonalLoop=1;jettySize=auto;html=1;fontSize=12;startSize=8;endSize=8;" parent="1" source="xLusIHKsAydajGtpD9oH-90" target="xLusIHKsAydajGtpD9oH-69" edge="1">
          <mxGeometry relative="1" as="geometry" />
        </mxCell>
        <mxCell id="xLusIHKsAydajGtpD9oH-90" value="&lt;span style=&quot;background-color: transparent; color: light-dark(rgb(0, 0, 0), rgb(255, 255, 255));&quot;&gt;&lt;font style=&quot;font-size: 14px;&quot;&gt;&lt;b&gt;Input&lt;/b&gt;&lt;/font&gt;&lt;/span&gt;" style="shape=dataStorage;whiteSpace=wrap;html=1;fixedSize=1;rotation=90;align=center;" parent="1" vertex="1">
          <mxGeometry x="1042.5" y="567.5" width="50" height="40" as="geometry" />
        </mxCell>
        <mxCell id="xLusIHKsAydajGtpD9oH-93" style="edgeStyle=none;curved=1;rounded=0;orthogonalLoop=1;jettySize=auto;html=1;fontSize=12;startSize=8;endSize=8;" parent="1" source="xLusIHKsAydajGtpD9oH-91" target="xLusIHKsAydajGtpD9oH-70" edge="1">
          <mxGeometry relative="1" as="geometry" />
        </mxCell>
        <mxCell id="xLusIHKsAydajGtpD9oH-91" value="&lt;span style=&quot;background-color: transparent; color: light-dark(rgb(0, 0, 0), rgb(255, 255, 255));&quot;&gt;&lt;font style=&quot;font-size: 14px;&quot;&gt;&lt;b&gt;Input&lt;/b&gt;&lt;/font&gt;&lt;/span&gt;" style="shape=dataStorage;whiteSpace=wrap;html=1;fixedSize=1;rotation=90;align=center;" parent="1" vertex="1">
          <mxGeometry x="1172.5" y="567.5" width="50" height="40" as="geometry" />
        </mxCell>
        <mxCell id="xLusIHKsAydajGtpD9oH-97" style="edgeStyle=none;curved=1;rounded=0;orthogonalLoop=1;jettySize=auto;html=1;entryX=1;entryY=0.5;entryDx=0;entryDy=0;fontSize=12;startSize=8;endSize=8;exitX=0.16;exitY=0.55;exitDx=0;exitDy=0;exitPerimeter=0;" parent="1" target="xLusIHKsAydajGtpD9oH-72" edge="1">
          <mxGeometry relative="1" as="geometry">
            <Array as="points">
              <mxPoint x="877.5" y="730" />
            </Array>
            <mxPoint x="1011.5" y="746" as="sourcePoint" />
          </mxGeometry>
        </mxCell>
        <mxCell id="xLusIHKsAydajGtpD9oH-102" style="edgeStyle=none;curved=1;rounded=0;orthogonalLoop=1;jettySize=auto;html=1;entryX=1;entryY=0.5;entryDx=0;entryDy=0;fontSize=12;startSize=8;endSize=8;" parent="1" target="xLusIHKsAydajGtpD9oH-90" edge="1">
          <mxGeometry relative="1" as="geometry">
            <Array as="points">
              <mxPoint x="1077.5" y="650" />
            </Array>
            <mxPoint x="1072.4122790068263" y="680.5263259590429" as="sourcePoint" />
          </mxGeometry>
        </mxCell>
        <mxCell id="xLusIHKsAydajGtpD9oH-103" style="edgeStyle=none;curved=1;rounded=0;orthogonalLoop=1;jettySize=auto;html=1;fontSize=12;startSize=8;endSize=8;" parent="1" target="xLusIHKsAydajGtpD9oH-91" edge="1">
          <mxGeometry relative="1" as="geometry">
            <Array as="points">
              <mxPoint x="1197.5" y="720" />
            </Array>
            <mxPoint x="1136.2461503738346" y="729.0746443890614" as="sourcePoint" />
          </mxGeometry>
        </mxCell>
        <mxCell id="xLusIHKsAydajGtpD9oH-94" value="&lt;font style=&quot;font-size: 16px;&quot;&gt;&lt;b&gt;External&amp;nbsp;&lt;/b&gt;&lt;/font&gt;&lt;div&gt;&lt;font style=&quot;font-size: 16px;&quot;&gt;&lt;b&gt;Enviroment&lt;/b&gt;&lt;/font&gt;&lt;/div&gt;" style="ellipse;shape=cloud;whiteSpace=wrap;html=1;" parent="1" vertex="1">
          <mxGeometry x="997" y="680" width="150" height="120" as="geometry" />
        </mxCell>
        <mxCell id="rNpaKb_WSU_qO1_Yhmlk-1" value="Thinking Layer" style="rounded=0;whiteSpace=wrap;html=1;" parent="1" vertex="1">
          <mxGeometry x="997" y="308.75" width="120" height="60" as="geometry" />
        </mxCell>
        <mxCell id="rNpaKb_WSU_qO1_Yhmlk-6" style="edgeStyle=orthogonalEdgeStyle;rounded=0;orthogonalLoop=1;jettySize=auto;html=1;entryX=0.576;entryY=1;entryDx=0;entryDy=0;entryPerimeter=0;" parent="1" source="xLusIHKsAydajGtpD9oH-67" target="rNpaKb_WSU_qO1_Yhmlk-1" edge="1">
          <mxGeometry relative="1" as="geometry">
            <Array as="points">
              <mxPoint x="1066" y="430" />
              <mxPoint x="1066" y="430" />
            </Array>
          </mxGeometry>
        </mxCell>
        <mxCell id="rNpaKb_WSU_qO1_Yhmlk-7" style="edgeStyle=orthogonalEdgeStyle;rounded=0;orthogonalLoop=1;jettySize=auto;html=1;entryX=0.455;entryY=0.063;entryDx=0;entryDy=0;entryPerimeter=0;" parent="1" source="rNpaKb_WSU_qO1_Yhmlk-1" target="xLusIHKsAydajGtpD9oH-67" edge="1">
          <mxGeometry relative="1" as="geometry" />
        </mxCell>
        <mxCell id="rNpaKb_WSU_qO1_Yhmlk-14" style="edgeStyle=orthogonalEdgeStyle;rounded=0;orthogonalLoop=1;jettySize=auto;html=1;" parent="1" source="rNpaKb_WSU_qO1_Yhmlk-9" target="rNpaKb_WSU_qO1_Yhmlk-1" edge="1">
          <mxGeometry relative="1" as="geometry">
            <Array as="points">
              <mxPoint x="1150" y="329" />
              <mxPoint x="1150" y="329" />
            </Array>
          </mxGeometry>
        </mxCell>
        <mxCell id="rNpaKb_WSU_qO1_Yhmlk-9" value="Storage Layer" style="rounded=0;whiteSpace=wrap;html=1;rotation=-90;" parent="1" vertex="1">
          <mxGeometry x="1171" y="308.75" width="140" height="40" as="geometry" />
        </mxCell>
        <mxCell id="rNpaKb_WSU_qO1_Yhmlk-25" style="edgeStyle=orthogonalEdgeStyle;rounded=0;orthogonalLoop=1;jettySize=auto;html=1;entryX=1;entryY=0.5;entryDx=0;entryDy=0;" parent="1" source="rNpaKb_WSU_qO1_Yhmlk-11" target="rNpaKb_WSU_qO1_Yhmlk-15" edge="1">
          <mxGeometry relative="1" as="geometry">
            <Array as="points">
              <mxPoint x="1451" y="329" />
              <mxPoint x="1451" y="364" />
            </Array>
          </mxGeometry>
        </mxCell>
        <mxCell id="rNpaKb_WSU_qO1_Yhmlk-28" value="r/w" style="edgeLabel;html=1;align=center;verticalAlign=middle;resizable=0;points=[];" parent="rNpaKb_WSU_qO1_Yhmlk-25" vertex="1" connectable="0">
          <mxGeometry x="-0.3861" y="2" relative="1" as="geometry">
            <mxPoint y="1" as="offset" />
          </mxGeometry>
        </mxCell>
        <mxCell id="rNpaKb_WSU_qO1_Yhmlk-11" value="&lt;span style=&quot;font-size: 10px;&quot;&gt;Buffer Memory&lt;/span&gt;" style="shape=process;whiteSpace=wrap;html=1;backgroundOutline=1;" parent="1" vertex="1">
          <mxGeometry x="1257.5" y="318.75" width="80" height="30" as="geometry" />
        </mxCell>
        <mxCell id="rNpaKb_WSU_qO1_Yhmlk-12" style="edgeStyle=orthogonalEdgeStyle;rounded=0;orthogonalLoop=1;jettySize=auto;html=1;entryX=0.432;entryY=0.1;entryDx=0;entryDy=0;entryPerimeter=0;" parent="1" source="rNpaKb_WSU_qO1_Yhmlk-1" target="rNpaKb_WSU_qO1_Yhmlk-9" edge="1">
          <mxGeometry relative="1" as="geometry" />
        </mxCell>
        <mxCell id="rNpaKb_WSU_qO1_Yhmlk-27" style="edgeStyle=orthogonalEdgeStyle;rounded=0;orthogonalLoop=1;jettySize=auto;html=1;entryX=0.25;entryY=1;entryDx=0;entryDy=0;" parent="1" source="rNpaKb_WSU_qO1_Yhmlk-15" target="rNpaKb_WSU_qO1_Yhmlk-11" edge="1">
          <mxGeometry relative="1" as="geometry">
            <Array as="points">
              <mxPoint x="1371" y="400" />
              <mxPoint x="1278" y="400" />
              <mxPoint x="1278" y="369" />
            </Array>
          </mxGeometry>
        </mxCell>
        <mxCell id="rNpaKb_WSU_qO1_Yhmlk-29" value="read" style="edgeLabel;html=1;align=center;verticalAlign=middle;resizable=0;points=[];" parent="rNpaKb_WSU_qO1_Yhmlk-27" vertex="1" connectable="0">
          <mxGeometry x="-0.2679" y="-1" relative="1" as="geometry">
            <mxPoint as="offset" />
          </mxGeometry>
        </mxCell>
        <mxCell id="rNpaKb_WSU_qO1_Yhmlk-15" value="&lt;span style=&quot;font-size: 10px;&quot;&gt;The Memory&lt;/span&gt;" style="shape=process;whiteSpace=wrap;html=1;backgroundOutline=1;" parent="1" vertex="1">
          <mxGeometry x="1311" y="348.75" width="120" height="30" as="geometry" />
        </mxCell>
        <mxCell id="rNpaKb_WSU_qO1_Yhmlk-30" value="Conviene eliminare come dati spazzatura, magari quelli che non hanno collegamenti o hanno una strada lunga?" style="text;html=1;align=center;verticalAlign=middle;whiteSpace=wrap;rounded=0;" parent="1" vertex="1">
          <mxGeometry x="1337.5" y="230" width="180" height="125" as="geometry" />
        </mxCell>
      </root>
    </mxGraphModel>
  </diagram>
</mxfile>
